<svg width="1000" height="1000" viewBox="0 0 1000 1000" xmlns="http://www.w3.org/2000/svg"><defs/><path fill="#ff6600" transform="matrix(0.49825819285928796 0 0 0.49825819285928796 3.160973384986486 22.210930830146154)" d="M 542.70469069935 1118.53836737269 L 532.40469069935 1118.43836737269 L 314.10469069935 1076.73836737269 L 314.10469069935 804.53836737269 L 321.80469069935 796.83836737269 L 321.80469069935 1070.33836737269 L 533.50469069935 1110.73836737269 L 542.00469069935 1110.73836737269 L 753.70469069935 1070.33836737269 L 753.70469069935 792.93836737269 L 761.40469069935 800.63836737269 L 761.40469069935 1076.73836737269 Z"/><path fill="#ff6600" transform="matrix(0.49825819285928796 0 0 0.49825819285928796 3.160973384986486 22.210930830146154)" d="M 542.70469069935 1141.03836737269 L 532.40469069935 1140.93836737269 L 294.70469069935 1096.03836737269 L 294.70469069935 816.13836737269 L 302.50469069935 808.43836737269 L 302.50469069935 1089.63836737269 L 533.50469069935 1133.23836737269 L 542.00469069935 1133.23836737269 L 773.00469069935 1089.63836737269 L 773.00469069935 804.53836737269 L 780.70469069935 812.23836737269 L 780.70469069935 1096.03836737269 Z"/><path fill="#ff6600" transform="matrix(0.49825819285928796 0 0 0.49825819285928796 3.160973384986486 22.210930830146154)" d="M 537.00469069935 896.83836737269 C 500.40469069935 896.83836737269 470.70469069935 926.53836737269 470.70469069935 963.13836737269 C 470.70469069935 999.73836737269 500.40469069935 1029.53836737269 537.00469069935 1029.53836737269 C 573.60469069935 1029.53836737269 603.30469069935 999.83836737269 603.30469069935 963.23836737269 C 603.30469069935 926.63836737269 573.70469069935 896.83836737269 537.00469069935 896.83836737269 Z M 547.10469069935 931.53836737269 C 542.90469069935 931.53836737269 538.80469069935 932.03836737269 535.00469069935 933.03836737269 C 533.10469069935 933.43836737269 531.20469069935 934.13836737269 529.40469069935 934.73836737269 C 527.60469069935 935.53836737269 525.80469069935 936.13836737269 524.20469069935 937.13836737269 C 523.30469069935 937.53836737269 522.50469069935 938.03836737269 521.70469069935 938.53836737269 C 520.90469069935 939.03836737269 520.10469069935 939.43836737269 519.30469069935 940.13836737269 C 518.50469069935 940.73836737269 517.70469069935 941.23836737269 517.00469069935 941.83836737269 L 514.90469069935 943.73836737269 C 512.10469069935 946.33836737269 509.70469069935 949.23836737269 507.50469069935 952.33836737269 C 505.40469069935 955.53836737269 503.70469069935 959.03836737269 502.40469069935 962.73836737269 C 499.80469069935 970.23836737269 499.00469069935 978.63836737269 500.10469069935 987.93836737269 C 493.80469069935 980.93836737269 490.90469069935 970.63836737269 492.00469069935 960.53836737269 C 492.50469069935 955.53836737269 494.10469069935 950.53836737269 496.40469069935 945.93836737269 C 498.80469069935 941.33836737269 502.00469069935 937.23836737269 505.80469069935 933.63836737269 C 509.60469069935 930.13836737269 514.10469069935 927.33836737269 518.90469069935 925.43836737269 C 523.70469069935 923.53836737269 528.80469069935 922.43836737269 533.90469069935 922.43836737269 C 539.00469069935 922.43836737269 544.00469069935 923.23836737269 548.50469069935 925.03836737269 C 553.00469069935 926.93836737269 557.20469069935 929.53836737269 560.40469069935 933.03836737269 C 555.60469069935 932.03836737269 551.30469069935 931.53836737269 547.10469069935 931.53836737269 Z"/><path fill="#ff6600" transform="matrix(0.49825819285928796 0 0 0.49825819285928796 3.160973384986486 22.210930830146154)" d="M 537.00469069935 831.63836737269 L 424.00469069935 807.63836737269 L 423.80469069935 795.63836737269 C 423.70469069935 788.73836737269 418.80469069935 782.83836737269 412.10469069935 781.33836737269 L 392.20469069935 777.13836737269 C 383.40469069935 775.23836737269 375.00469069935 781.53836737269 374.30469069935 790.43836737269 L 373.80469069935 796.83836737269 L 336.90469069935 788.93836737269 L 336.90469069935 1055.13836737269 L 537.00469069935 1093.83836737269 L 737.10469069935 1055.13836737269 L 737.10469069935 789.03836737269 L 537.00469069935 831.63836737269 Z M 537.00469069935 1043.73836737269 C 492.50469069935 1043.73836737269 456.40469069935 1007.63836737269 456.40469069935 963.13836737269 C 456.40469069935 918.63836737269 492.50469069935 882.53836737269 537.00469069935 882.53836737269 C 581.50469069935 882.53836737269 617.60469069935 918.63836737269 617.60469069935 963.13836737269 C 617.60469069935 1007.63836737269 581.50469069935 1043.73836737269 537.00469069935 1043.73836737269 Z M 677.00469069935 880.13836737269 C 667.70469069935 880.13836737269 660.20469069935 872.63836737269 660.20469069935 863.33836737269 C 660.20469069935 854.03836737269 667.70469069935 846.53836737269 677.00469069935 846.53836737269 C 686.30469069935 846.53836737269 693.80469069935 854.03836737269 693.80469069935 863.33836737269 C 693.80469069935 872.63836737269 686.30469069935 880.13836737269 677.00469069935 880.13836737269 Z"/><path id="text" fill="#ffffff" transform="matrix(0.8673132209354656 0 0 0.8673132209354656 270.759693630548 49.4920161095494)" d="M 185.09033797575 545.44502261087 C 185.09033797575 547.47627261087 185.87158797575 548.76533511087 187.43408797575 549.31221011087 C 188.99658797575 549.85908511087 189.77783797575 550.52314761087 189.77783797575 551.30439761087 C 189.77783797575 551.96064761087 189.46533797575 552.28877261087 188.84033797575 552.28877261087 L 172.94971297575 552.28877261087 C 172.29346297575 552.28877261087 171.96533797575 551.96064761087 171.96533797575 551.30439761087 C 171.96533797575 550.52314761087 172.73096297575 549.85908511087 174.26221297575 549.31221011087 C 175.79346297575 548.76533511087 176.55908797575 547.47627261087 176.55908797575 545.44502261087 L 176.65283797575 493.36689761087 C 176.65283797575 491.36689761087 175.87158797575 490.08564761087 174.30908797575 489.52314761087 C 172.74658797575 488.96064761087 171.96533797575 488.27314761087 171.96533797575 487.46064761087 C 171.96533797575 486.80439761087 172.29346297575 486.47627261087 172.94971297575 486.47627261087 L 200.60596297575 486.47627261087 C 203.82471297575 486.47627261087 207.18408797575 487.04658511087 210.68408797575 488.18721011087 C 214.18408797575 489.32783511087 216.88721297575 491.53877261087 218.79346297575 494.82002261087 C 220.29346297575 497.47627261087 221.04346297575 500.66377261087 221.04346297575 504.38252261087 C 220.98096297575 507.91377261087 219.96533797575 511.08564761087 217.99658797575 513.89814761087 C 216.30908797575 516.30439761087 213.91065047575 518.09346011087 210.80127547575 519.26533511087 C 207.69190047575 520.43721011087 204.85596297575 521.02314761087 202.29346297575 521.02314761087 L 185.09033797575 521.02314761087 L 185.09033797575 545.44502261087 Z M 185.09033797575 490.36689761087 L 185.09033797575 517.74189761087 L 195.96533797575 517.74189761087 C 198.12158797575 517.74189761087 200.30908797575 517.42939761087 202.52783797575 516.80439761087 C 204.74658797575 516.17939761087 206.65283797575 515.07002261087 208.24658797575 513.47627261087 C 210.74658797575 511.07002261087 211.99658797575 507.88252261087 211.99658797575 503.91377261087 C 211.99658797575 500.10127261087 210.69971297575 496.91377261087 208.10596297575 494.35127261087 C 205.32471297575 491.69502261087 201.59033797575 490.36689761087 196.90283797575 490.36689761087 L 185.09033797575 490.36689761087 Z M 244.05908797575 493.36689761087 L 244.05908797575 545.39814761087 C 244.05908797575 547.46064761087 244.84033797575 548.76533511087 246.40283797575 549.31221011087 C 247.96533797575 549.85908511087 248.74658797575 550.52314761087 248.74658797575 551.30439761087 C 248.74658797575 551.96064761087 248.41846297575 552.28877261087 247.76221297575 552.28877261087 L 231.87158797575 552.28877261087 C 231.24658797575 552.28877261087 230.93408797575 551.96064761087 230.93408797575 551.30439761087 C 230.93408797575 550.52314761087 231.71533797575 549.85908511087 233.27783797575 549.31221011087 C 234.84033797575 548.76533511087 235.62158797575 547.47627261087 235.62158797575 545.44502261087 L 235.62158797575 493.36689761087 C 235.62158797575 491.33564761087 234.84033797575 490.04658511087 233.27783797575 489.49971011087 C 231.71533797575 488.95283511087 230.93408797575 488.27314761087 230.93408797575 487.46064761087 C 230.93408797575 486.80439761087 231.26221297575 486.47627261087 231.91846297575 486.47627261087 L 247.76221297575 486.47627261087 C 248.41846297575 486.47627261087 248.74658797575 486.80439761087 248.74658797575 487.46064761087 C 248.74658797575 488.27314761087 247.96533797575 488.95283511087 246.40283797575 489.49971011087 C 244.84033797575 490.04658511087 244.05908797575 491.33564761087 244.05908797575 493.36689761087 Z M 295.76221297575 554.02314761087 C 286.16846297575 554.02314761087 277.66846297575 550.96064761087 270.26221297575 544.83564761087 C 262.85596297575 538.71064761087 259.15283797575 530.24189761087 259.15283797575 519.42939761087 C 259.15283797575 508.89814761087 262.75440047575 500.45283511087 269.95752547575 494.09346011087 C 277.16065047575 487.73408511087 285.76221297575 484.55439761087 295.76221297575 484.55439761087 C 299.35596297575 484.55439761087 303.17627547575 484.95283511087 307.22315047575 485.74971011087 C 311.27002547575 486.54658511087 315.12158797575 488.11689761087 318.77783797575 490.46064761087 L 317.65283797575 500.30439761087 C 317.52783797575 500.86689761087 317.21533797575 501.14814761087 316.71533797575 501.14814761087 L 316.57471297575 501.14814761087 C 316.19971297575 501.11689761087 315.79346297575 500.67939761087 315.35596297575 499.83564761087 C 313.54346297575 495.92939761087 310.82471297575 493.05439761087 307.19971297575 491.21064761087 C 303.82471297575 489.55439761087 300.23096297575 488.72627261087 296.41846297575 488.72627261087 L 295.43408797575 488.72627261087 C 286.99658797575 489.10127261087 280.40283797575 492.47627261087 275.65283797575 498.85127261087 C 271.37158797575 504.57002261087 269.23096297575 510.89814761087 269.23096297575 517.83564761087 C 269.23096297575 518.61689761087 269.26221297575 519.39814761087 269.32471297575 520.17939761087 C 269.76221297575 527.36689761087 272.29346297575 533.91377261087 276.91846297575 539.82002261087 C 281.54346297575 545.72627261087 287.82471297575 548.86689761087 295.76221297575 549.24189761087 C 296.51221297575 549.27314761087 297.23096297575 549.28877261087 297.91846297575 549.28877261087 C 301.91846297575 549.28877261087 305.21533797575 548.67939761087 307.80908797575 547.46064761087 C 310.80908797575 546.02314761087 313.32471297575 543.13252261087 315.35596297575 538.78877261087 C 315.76221297575 537.91377261087 316.26221297575 537.47627261087 316.85596297575 537.47627261087 C 316.98096297575 537.47627261087 317.10596297575 537.49189761087 317.23096297575 537.52314761087 C 317.73096297575 537.71064761087 317.98096297575 538.07002261087 317.98096297575 538.60127261087 C 317.98096297575 538.85127261087 317.91846297575 539.13252261087 317.79346297575 539.44502261087 L 313.71533797575 550.83564761087 C 310.71533797575 552.08564761087 307.66846297575 552.92939761087 304.57471297575 553.36689761087 C 301.48096297575 553.80439761087 298.54346297575 554.02314761087 295.76221297575 554.02314761087 Z M 401.41846297575 493.36689761087 L 401.41846297575 545.44502261087 C 401.41846297575 547.47627261087 402.20752547575 548.76533511087 403.78565047575 549.31221011087 C 405.36377547575 549.85908511087 406.15283797575 550.52314761087 406.15283797575 551.30439761087 C 406.15283797575 551.96064761087 405.82471297575 552.28877261087 405.16846297575 552.28877261087 L 389.27783797575 552.28877261087 C 388.62158797575 552.28877261087 388.29346297575 551.96064761087 388.29346297575 551.30439761087 C 388.29346297575 550.52314761087 389.07471297575 549.85908511087 390.63721297575 549.31221011087 C 392.19971297575 548.76533511087 392.98096297575 547.47627261087 392.98096297575 545.44502261087 L 392.98096297575 495.24189761087 L 365.93408797575 553.69502261087 L 364.10596297575 553.69502261087 L 337.34033797575 497.44502261087 L 337.34033797575 545.44502261087 C 337.34033797575 547.47627261087 338.12158797575 548.76533511087 339.68408797575 549.31221011087 C 341.24658797575 549.85908511087 342.02783797575 550.52314761087 342.02783797575 551.30439761087 C 342.02783797575 551.96064761087 341.69971297575 552.28877261087 341.04346297575 552.28877261087 L 329.13721297575 552.28877261087 C 328.48096297575 552.28877261087 328.15283797575 551.96064761087 328.15283797575 551.30439761087 C 328.15283797575 550.52314761087 328.93408797575 549.85908511087 330.49658797575 549.31221011087 C 332.05908797575 548.76533511087 332.84033797575 547.47627261087 332.84033797575 545.44502261087 L 332.84033797575 493.36689761087 C 332.84033797575 491.36689761087 332.05908797575 490.08564761087 330.49658797575 489.52314761087 C 328.93408797575 488.96064761087 328.15283797575 488.27314761087 328.15283797575 487.46064761087 C 328.15283797575 486.80439761087 328.48096297575 486.47627261087 329.13721297575 486.47627261087 L 341.60596297575 486.47627261087 L 367.24658797575 539.07002261087 L 392.09033797575 486.47627261087 L 405.16846297575 486.47627261087 C 405.82471297575 486.47627261087 406.15283797575 486.80439761087 406.15283797575 487.46064761087 C 406.15283797575 488.27314761087 405.36377547575 488.96064761087 403.78565047575 489.52314761087 C 402.20752547575 490.08564761087 401.41846297575 491.36689761087 401.41846297575 493.36689761087 Z M 450.59033797575 485.39814761087 C 452.15283797575 489.08564761087 454.08252547575 493.60127261087 456.37940047575 498.94502261087 C 458.67627547575 504.28877261087 461.05127547575 509.78877261087 463.50440047575 515.44502261087 C 465.95752547575 521.10127261087 468.33252547575 526.60127261087 470.62940047575 531.94502261087 C 472.92627547575 537.28877261087 474.87158797575 541.78877261087 476.46533797575 545.44502261087 C 476.93408797575 546.60127261087 477.85596297575 547.64814761087 479.23096297575 548.58564761087 C 479.94971297575 549.05439761087 480.66065047575 549.44502261087 481.36377547575 549.75752261087 C 482.06690047575 550.07002261087 482.63721297575 550.36689761087 483.07471297575 550.64814761087 C 483.38721297575 550.86689761087 483.59033797575 551.08564761087 483.68408797575 551.30439761087 C 483.74658797575 551.42939761087 483.77783797575 551.55439761087 483.77783797575 551.67939761087 C 483.77783797575 551.77314761087 483.74658797575 551.88252261087 483.68408797575 552.00752261087 C 483.59033797575 552.19502261087 483.40283797575 552.28877261087 483.12158797575 552.28877261087 L 467.27783797575 552.28877261087 C 466.99658797575 552.28877261087 466.71533797575 552.19502261087 466.43408797575 552.00752261087 C 466.12158797575 551.78877261087 465.93408797575 551.55439761087 465.87158797575 551.30439761087 C 465.80908797575 551.21064761087 465.77783797575 551.11689761087 465.77783797575 551.02314761087 C 465.77783797575 550.74189761087 465.96533797575 550.44502261087 466.34033797575 550.13252261087 C 466.62158797575 549.85127261087 466.96533797575 549.55439761087 467.37158797575 549.24189761087 C 467.77783797575 548.92939761087 468.07471297575 548.50752261087 468.26221297575 547.97627261087 C 468.35596297575 547.72627261087 468.40283797575 547.44502261087 468.40283797575 547.13252261087 C 468.40283797575 546.60127261087 468.27783797575 546.02314761087 468.02783797575 545.39814761087 L 461.09033797575 529.36689761087 L 433.76221297575 529.36689761087 C 432.63721297575 532.05439761087 431.52002547575 534.73408511087 430.41065047575 537.40596011087 C 429.30127547575 540.07783511087 428.18408797575 542.74189761087 427.05908797575 545.39814761087 C 426.77783797575 546.02314761087 426.62158797575 546.58564761087 426.59033797575 547.08564761087 C 426.55908797575 547.30439761087 426.54346297575 547.52314761087 426.54346297575 547.74189761087 C 426.54346297575 548.05439761087 426.59033797575 548.35127261087 426.68408797575 548.63252261087 C 426.77783797575 549.03877261087 426.93408797575 549.37471011087 427.15283797575 549.64033511087 C 427.37158797575 549.90596011087 427.52783797575 550.17939761087 427.62158797575 550.46064761087 C 427.65283797575 550.71064761087 427.66846297575 550.88252261087 427.66846297575 550.97627261087 C 427.66846297575 551.07002261087 427.63721297575 551.17939761087 427.57471297575 551.30439761087 C 427.35596297575 551.96064761087 427.01221297575 552.28877261087 426.54346297575 552.28877261087 L 414.44971297575 552.28877261087 C 414.13721297575 552.28877261087 413.91846297575 552.19502261087 413.79346297575 552.00752261087 C 413.79346297575 551.97627261087 413.76221297575 551.89814761087 413.69971297575 551.77314761087 C 413.69971297575 551.71064761087 413.73096297575 551.55439761087 413.79346297575 551.30439761087 C 413.98096297575 550.89814761087 414.51221297575 550.49189761087 415.38721297575 550.08564761087 C 415.85596297575 549.86689761087 416.36377547575 549.62471011087 416.91065047575 549.35908511087 C 417.45752547575 549.09346011087 418.01221297575 548.77314761087 418.57471297575 548.39814761087 C 419.73096297575 547.58564761087 420.57471297575 546.60127261087 421.10596297575 545.44502261087 L 447.68408797575 485.39814761087 L 450.59033797575 485.39814761087 Z M 459.44971297575 525.57002261087 L 447.21533797575 497.02314761087 C 445.21533797575 501.80439761087 443.22315047575 506.57002261087 441.23877547575 511.32002261087 C 439.25440047575 516.07002261087 437.27783797575 520.82002261087 435.30908797575 525.57002261087 L 459.44971297575 525.57002261087 Z M 550.15283797575 542.77314761087 L 550.15283797575 493.36689761087 C 550.15283797575 491.36689761087 549.37940047575 490.08564761087 547.83252547575 489.52314761087 C 546.28565047575 488.96064761087 545.51221297575 488.27314761087 545.51221297575 487.46064761087 C 545.51221297575 486.80439761087 545.82471297575 486.47627261087 546.44971297575 486.47627261087 L 558.40283797575 486.47627261087 C 559.05908797575 486.47627261087 559.38721297575 486.80439761087 559.38721297575 487.46064761087 C 559.38721297575 488.27314761087 558.60596297575 488.96064761087 557.04346297575 489.52314761087 C 555.48096297575 490.08564761087 554.69971297575 491.36689761087 554.69971297575 493.36689761087 L 554.65283797575 554.30439761087 L 546.35596297575 552.28877261087 L 501.44971297575 496.55439761087 L 501.44971297575 545.44502261087 C 501.44971297575 547.47627261087 502.23096297575 548.76533511087 503.79346297575 549.31221011087 C 505.35596297575 549.85908511087 506.13721297575 550.52314761087 506.13721297575 551.30439761087 C 506.13721297575 551.96064761087 505.80908797575 552.28877261087 505.15283797575 552.28877261087 L 493.24658797575 552.28877261087 C 492.59033797575 552.28877261087 492.26221297575 551.96064761087 492.26221297575 551.30439761087 C 492.26221297575 550.52314761087 493.04346297575 549.85908511087 494.60596297575 549.31221011087 C 496.16846297575 548.76533511087 496.94971297575 547.47627261087 496.94971297575 545.44502261087 L 496.94971297575 493.36689761087 C 496.94971297575 491.36689761087 496.16846297575 490.08564761087 494.60596297575 489.52314761087 C 493.04346297575 488.96064761087 492.26221297575 488.27314761087 492.26221297575 487.46064761087 C 492.26221297575 486.80439761087 492.59033797575 486.47627261087 493.24658797575 486.47627261087 L 505.29346297575 486.47627261087 L 550.15283797575 542.77314761087 Z M 583.43408797575 493.36689761087 L 583.43408797575 545.39814761087 C 583.43408797575 547.46064761087 584.21533797575 548.76533511087 585.77783797575 549.31221011087 C 587.34033797575 549.85908511087 588.12158797575 550.52314761087 588.12158797575 551.30439761087 C 588.12158797575 551.96064761087 587.79346297575 552.28877261087 587.13721297575 552.28877261087 L 571.24658797575 552.28877261087 C 570.62158797575 552.28877261087 570.30908797575 551.96064761087 570.30908797575 551.30439761087 C 570.30908797575 550.52314761087 571.09033797575 549.85908511087 572.65283797575 549.31221011087 C 574.21533797575 548.76533511087 574.99658797575 547.47627261087 574.99658797575 545.44502261087 L 574.99658797575 493.36689761087 C 574.99658797575 491.33564761087 574.21533797575 490.04658511087 572.65283797575 489.49971011087 C 571.09033797575 488.95283511087 570.30908797575 488.27314761087 570.30908797575 487.46064761087 C 570.30908797575 486.80439761087 570.63721297575 486.47627261087 571.29346297575 486.47627261087 L 587.13721297575 486.47627261087 C 587.79346297575 486.47627261087 588.12158797575 486.80439761087 588.12158797575 487.46064761087 C 588.12158797575 488.27314761087 587.34033797575 488.95283511087 585.77783797575 489.49971011087 C 584.21533797575 490.04658511087 583.43408797575 491.33564761087 583.43408797575 493.36689761087 Z M 634.66846297575 485.39814761087 C 636.23096297575 489.08564761087 638.16065047575 493.60127261087 640.45752547575 498.94502261087 C 642.75440047575 504.28877261087 645.12940047575 509.78877261087 647.58252547575 515.44502261087 C 650.03565047575 521.10127261087 652.41065047575 526.60127261087 654.70752547575 531.94502261087 C 657.00440047575 537.28877261087 658.94971297575 541.78877261087 660.54346297575 545.44502261087 C 661.01221297575 546.60127261087 661.93408797575 547.64814761087 663.30908797575 548.58564761087 C 664.02783797575 549.05439761087 664.73877547575 549.44502261087 665.44190047575 549.75752261087 C 666.14502547575 550.07002261087 666.71533797575 550.36689761087 667.15283797575 550.64814761087 C 667.46533797575 550.86689761087 667.66846297575 551.08564761087 667.76221297575 551.30439761087 C 667.82471297575 551.42939761087 667.85596297575 551.55439761087 667.85596297575 551.67939761087 C 667.85596297575 551.77314761087 667.82471297575 551.88252261087 667.76221297575 552.00752261087 C 667.66846297575 552.19502261087 667.48096297575 552.28877261087 667.19971297575 552.28877261087 L 651.35596297575 552.28877261087 C 651.07471297575 552.28877261087 650.79346297575 552.19502261087 650.51221297575 552.00752261087 C 650.19971297575 551.78877261087 650.01221297575 551.55439761087 649.94971297575 551.30439761087 C 649.88721297575 551.21064761087 649.85596297575 551.11689761087 649.85596297575 551.02314761087 C 649.85596297575 550.74189761087 650.04346297575 550.44502261087 650.41846297575 550.13252261087 C 650.69971297575 549.85127261087 651.04346297575 549.55439761087 651.44971297575 549.24189761087 C 651.85596297575 548.92939761087 652.15283797575 548.50752261087 652.34033797575 547.97627261087 C 652.43408797575 547.72627261087 652.48096297575 547.44502261087 652.48096297575 547.13252261087 C 652.48096297575 546.60127261087 652.35596297575 546.02314761087 652.10596297575 545.39814761087 L 645.16846297575 529.36689761087 L 617.84033797575 529.36689761087 C 616.71533797575 532.05439761087 615.59815047575 534.73408511087 614.48877547575 537.40596011087 C 613.37940047575 540.07783511087 612.26221297575 542.74189761087 611.13721297575 545.39814761087 C 610.85596297575 546.02314761087 610.69971297575 546.58564761087 610.66846297575 547.08564761087 C 610.63721297575 547.30439761087 610.62158797575 547.52314761087 610.62158797575 547.74189761087 C 610.62158797575 548.05439761087 610.66846297575 548.35127261087 610.76221297575 548.63252261087 C 610.85596297575 549.03877261087 611.01221297575 549.37471011087 611.23096297575 549.64033511087 C 611.44971297575 549.90596011087 611.60596297575 550.17939761087 611.69971297575 550.46064761087 C 611.73096297575 550.71064761087 611.74658797575 550.88252261087 611.74658797575 550.97627261087 C 611.74658797575 551.07002261087 611.71533797575 551.17939761087 611.65283797575 551.30439761087 C 611.43408797575 551.96064761087 611.09033797575 552.28877261087 610.62158797575 552.28877261087 L 598.52783797575 552.28877261087 C 598.21533797575 552.28877261087 597.99658797575 552.19502261087 597.87158797575 552.00752261087 C 597.87158797575 551.97627261087 597.84033797575 551.89814761087 597.77783797575 551.77314761087 C 597.77783797575 551.71064761087 597.80908797575 551.55439761087 597.87158797575 551.30439761087 C 598.05908797575 550.89814761087 598.59033797575 550.49189761087 599.46533797575 550.08564761087 C 599.93408797575 549.86689761087 600.44190047575 549.62471011087 600.98877547575 549.35908511087 C 601.53565047575 549.09346011087 602.09033797575 548.77314761087 602.65283797575 548.39814761087 C 603.80908797575 547.58564761087 604.65283797575 546.60127261087 605.18408797575 545.44502261087 L 631.76221297575 485.39814761087 L 634.66846297575 485.39814761087 Z M 643.52783797575 525.57002261087 L 631.29346297575 497.02314761087 C 629.29346297575 501.80439761087 627.30127547575 506.57002261087 625.31690047575 511.32002261087 C 623.33252547575 516.07002261087 621.35596297575 520.82002261087 619.38721297575 525.57002261087 L 643.52783797575 525.57002261087 Z"/></svg>